<svg id="svg" version="1.1" xmlns="http://www.w3.org/2000/svg" xmlns:xlink="http://www.w3.org/1999/xlink" width="400" height="400" viewBox="0, 0, 400,400"><g id="svgg"><path id="path0" d="M185.778 32.252 C 73.850 41.231,6.820 161.012,56.962 262.442 C 117.850 385.609,299.241 377.979,348.526 250.178 C 391.621 138.428,305.175 22.673,185.778 32.252 M229.333 37.546 C 307.988 51.985,363.935 127.145,355.552 207.111 C 342.042 336.001,187.063 393.888,93.047 305.160 C -20.487 198.011,75.604 9.326,229.333 37.546 M241.265 80.022 C 224.651 93.090,244.784 128.000,268.935 128.000 C 280.622 128.000,285.162 122.461,284.089 109.514 C 282.179 86.488,255.981 68.446,241.265 80.022 M267.561 86.106 C 277.901 93.992,283.524 108.496,280.185 118.667 C 278.281 124.465,276.748 123.664,272.325 114.560 C 267.451 104.526,254.085 90.000,247.043 87.083 C 237.665 83.198,241.366 79.692,253.766 80.716 C 258.477 81.105,263.658 83.129,267.561 86.106 M257.493 99.474 C 265.588 107.816,274.584 123.737,272.077 125.286 C 264.734 129.824,243.938 113.402,239.882 99.863 C 235.377 84.826,243.112 84.656,257.493 99.474 M288.990 133.729 C 280.314 146.115,293.152 170.667,308.305 170.667 C 323.858 170.667,324.476 147.237,309.261 134.434 C 302.140 128.442,292.917 128.121,288.990 133.729 M307.661 136.361 C 317.506 144.645,320.845 157.243,315.295 165.166 L 312.368 169.345 309.202 161.006 C 307.461 156.419,302.821 148.407,298.891 143.201 C 294.961 137.996,292.236 133.246,292.835 132.646 C 295.352 130.129,302.334 131.879,307.661 136.361 M244.099 139.403 C 227.450 153.726,254.686 191.755,275.438 183.160 C 290.561 176.896,284.578 149.846,265.704 139.155 C 256.604 134.001,250.294 134.073,244.099 139.403 M262.755 141.175 C 277.429 148.841,285.233 167.229,278.121 177.382 C 274.942 181.922,268.444 182.710,268.444 178.557 C 268.444 173.199,259.114 156.130,252.228 148.891 C 243.201 139.402,249.926 134.472,262.755 141.175 M296.481 145.497 C 302.699 154.081,308.493 166.766,306.916 168.344 C 303.097 172.162,289.877 156.150,288.525 146.068 C 287.258 136.623,289.914 136.432,296.481 145.497 M251.222 153.333 C 263.841 168.895,268.855 183.488,260.000 178.881 C 250.210 173.788,241.778 160.553,241.778 150.279 C 241.778 143.888,244.197 144.670,251.222 153.333 " stroke="none" fill="#000000" fill-rule="evenodd"></path></g></svg>